<svg width="584" height="136" viewBox="0 0 584 136" fill="none" xmlns="http://www.w3.org/2000/svg">
<path d="M192.359 107.846C183.674 107.846 175.949 106.03 169.183 102.397C162.518 98.764 157.217 93.8194 153.278 87.5629C149.441 81.2056 147.522 73.9905 147.522 65.9176C147.522 57.7439 149.441 50.5288 153.278 44.2723C157.217 37.9149 162.518 32.9703 169.183 29.4385C175.949 25.8057 183.674 23.9893 192.359 23.9893C200.942 23.9893 208.617 25.8057 215.382 29.4385C222.148 32.9703 227.45 37.8645 231.287 44.1209C235.124 50.3774 237.043 57.643 237.043 65.9176C237.043 73.9905 235.124 81.2056 231.287 87.5629C227.45 93.8194 222.148 98.764 215.382 102.397C208.617 106.03 200.942 107.846 192.359 107.846ZM192.359 88.4711C196.297 88.4711 199.831 87.5629 202.962 85.7466C206.092 83.9302 208.566 81.3569 210.384 78.0269C212.202 74.5959 213.11 70.5595 213.11 65.9176C213.11 61.1748 212.202 57.1384 210.384 53.8084C208.566 50.4783 206.092 47.9051 202.962 46.0887C199.831 44.2723 196.297 43.3641 192.359 43.3641C188.42 43.3641 184.886 44.2723 181.755 46.0887C178.625 47.9051 176.1 50.4783 174.182 53.8084C172.364 57.1384 171.455 61.1748 171.455 65.9176C171.455 70.5595 172.364 74.5959 174.182 78.0269C176.1 81.3569 178.625 83.9302 181.755 85.7466C184.886 87.5629 188.42 88.4711 192.359 88.4711Z" fill="#191715"/>
<path d="M301.006 107.846C294.14 107.846 288.131 106.332 282.981 103.305C277.831 100.278 273.792 95.6862 270.863 89.5307C268.036 83.2742 266.622 75.4032 266.622 65.9176C266.622 56.3311 267.985 48.4601 270.712 42.3046C273.438 36.149 277.376 31.5576 282.527 28.5303C287.677 25.5029 293.837 23.9893 301.006 23.9893C308.681 23.9893 315.548 25.7552 321.607 29.2871C327.767 32.718 332.614 37.5618 336.148 43.8182C339.784 50.0747 341.601 57.4411 341.601 65.9176C341.601 74.495 339.784 81.9119 336.148 88.1684C332.614 94.4249 327.767 99.2686 321.607 102.7C315.548 106.13 308.681 107.846 301.006 107.846ZM252.838 136V25.2002H275.407V41.8505L274.953 66.069L276.468 90.1362V136H252.838ZM296.917 88.4711C300.855 88.4711 304.339 87.5629 307.368 85.7466C310.499 83.9302 312.973 81.3569 314.79 78.0269C316.709 74.5959 317.668 70.5595 317.668 65.9176C317.668 61.1748 316.709 57.1384 314.79 53.8084C312.973 50.4783 310.499 47.9051 307.368 46.0887C304.339 44.2723 300.855 43.3641 296.917 43.3641C292.978 43.3641 289.444 44.2723 286.313 46.0887C283.183 47.9051 280.709 50.4783 278.891 53.8084C277.074 57.1384 276.165 61.1748 276.165 65.9176C276.165 70.5595 277.074 74.5959 278.891 78.0269C280.709 81.3569 283.183 83.9302 286.313 85.7466C289.444 87.5629 292.978 88.4711 296.917 88.4711Z" fill="#191715"/>
<path d="M405.588 107.846C398.721 107.846 392.713 106.332 387.563 103.305C382.413 100.278 378.373 95.6862 375.445 89.5307C372.617 83.2742 371.204 75.4032 371.204 65.9176C371.204 56.3311 372.567 48.4601 375.293 42.3046C378.02 36.149 381.958 31.5576 387.108 28.5303C392.258 25.5029 398.418 23.9893 405.588 23.9893C413.263 23.9893 420.129 25.7552 426.188 29.2871C432.348 32.718 437.195 37.5618 440.73 43.8182C444.365 50.0747 446.183 57.4411 446.183 65.9176C446.183 74.495 444.365 81.9119 440.73 88.1684C437.195 94.4249 432.348 99.2686 426.188 102.7C420.129 106.13 413.263 107.846 405.588 107.846ZM357.419 136V25.2002H379.989V41.8505L379.535 66.069L381.049 90.1362V136H357.419ZM401.498 88.4711C405.437 88.4711 408.92 87.5629 411.95 85.7466C415.08 83.9302 417.554 81.3569 419.372 78.0269C421.291 74.5959 422.25 70.5595 422.25 65.9176C422.25 61.1748 421.291 57.1384 419.372 53.8084C417.554 50.4783 415.08 47.9051 411.95 46.0887C408.92 44.2723 405.437 43.3641 401.498 43.3641C397.56 43.3641 394.026 44.2723 390.895 46.0887C387.765 47.9051 385.291 50.4783 383.473 53.8084C381.655 57.1384 380.746 61.1748 380.746 65.9176C380.746 70.5595 381.655 74.5959 383.473 78.0269C385.291 81.3569 387.765 83.9302 390.895 85.7466C394.026 87.5629 397.56 88.4711 401.498 88.4711Z" fill="#191715"/>
<path d="M500.778 107.846C492.094 107.846 484.369 106.03 477.603 102.397C470.938 98.764 465.637 93.8194 461.698 87.5629C457.861 81.2056 455.942 73.9905 455.942 65.9176C455.942 57.7439 457.861 50.5288 461.698 44.2723C465.637 37.9149 470.938 32.9703 477.603 29.4385C484.369 25.8057 492.094 23.9893 500.778 23.9893C509.362 23.9893 517.037 25.8057 523.802 29.4385C530.568 32.9703 535.87 37.8645 539.707 44.1209C543.544 50.3774 545.463 57.643 545.463 65.9176C545.463 73.9905 543.544 81.2056 539.707 87.5629C535.87 93.8194 530.568 98.764 523.802 102.397C517.037 106.03 509.362 107.846 500.778 107.846ZM500.778 88.4711C504.717 88.4711 508.251 87.5629 511.382 85.7466C514.512 83.9302 516.986 81.3569 518.804 78.0269C520.621 74.5959 521.53 70.5595 521.53 65.9176C521.53 61.1748 520.621 57.1384 518.804 53.8084C516.986 50.4783 514.512 47.9051 511.382 46.0887C508.251 44.2723 504.717 43.3641 500.778 43.3641C496.84 43.3641 493.306 44.2723 490.175 46.0887C487.045 47.9051 484.52 50.4783 482.602 53.8084C480.784 57.1384 479.875 61.1748 479.875 65.9176C479.875 70.5595 480.784 74.5959 482.602 78.0269C484.52 81.3569 487.045 83.9302 490.175 85.7466C493.306 87.5629 496.84 88.4711 500.778 88.4711Z" fill="#191715"/>
<path d="M569.307 107.846C565.268 107.846 561.784 106.484 558.855 103.759C556.028 100.934 554.614 97.3513 554.614 93.0121C554.614 88.6729 556.028 85.1915 558.855 82.5679C561.784 79.8433 565.268 78.481 569.307 78.481C573.447 78.481 576.931 79.8433 579.759 82.5679C582.586 85.1915 584 88.6729 584 93.0121C584 97.3513 582.586 100.934 579.759 103.759C576.931 106.484 573.447 107.846 569.307 107.846Z" fill="#9086E1"/>
<path d="M38.6511 24.3623H63.6961V64.4984L51.3383 53.9967L38.6511 64.4984V24.3623Z" fill="#191715"/>
<path fill-rule="evenodd" clip-rule="evenodd" d="M5.99499 0C2.68405 0 0 2.68214 0 5.99073V129.799C0 133.108 2.68405 135.79 5.99499 135.79H129.891C133.202 135.79 135.886 133.108 135.886 129.799V5.99073C135.886 2.68214 133.202 0 129.891 0H5.99499ZM24.3796 111.428V24.3623H38.6511V64.4984L51.3383 53.9967L63.6961 64.4984V24.3623H64.0964C73.5885 24.3623 81.9565 26.1865 89.2004 29.835C96.4444 33.4005 102.106 38.4172 106.186 44.8849C110.266 51.3526 112.306 59.0226 112.306 67.895C112.306 76.6844 110.266 84.3545 106.186 90.9051C102.106 97.3728 96.4444 102.431 89.2004 106.079C81.9565 109.645 73.5885 111.428 64.0964 111.428H24.3796Z" fill="#9086E1"/>
</svg>
