<?xml version="1.0" encoding="UTF-8"?>
<svg id="Camada_2" data-name="Camada 2" xmlns="http://www.w3.org/2000/svg" viewBox="0 0 512 512">
  <defs>
    <style>
      .cls-1 {
        fill: none;
      }

      .cls-2 {
        fill: #9086e1;
        fill-rule: evenodd;
      }
    </style>
  </defs>
  <g id="_512" data-name="512">
    <g id="bg">
      <rect class="cls-1" width="512" height="512"/>
    </g>
    <g id="Icon">
      <path id="purple" class="cls-2" d="M103.6,88.85c-8.15,0-14.75,6.6-14.75,14.75v304.8c0,8.14,6.6,14.75,14.75,14.75h304.8c8.14,0,14.75-6.6,14.75-14.75V103.6c0-8.15-6.6-14.75-14.75-14.75H103.6ZM148.83,363.17v-214.34h35.11v98.81l31.21-25.86,30.4,25.86v-98.81h.99c23.35,0,43.94,4.49,61.76,13.47,17.82,8.78,31.75,21.13,41.79,37.05,10.04,15.92,15.06,34.81,15.06,56.65s-5.02,40.52-15.06,56.65c-10.04,15.92-23.96,28.38-41.79,37.35-17.82,8.78-38.41,13.17-61.76,13.17h-97.7Z"/>
    </g>
  </g>
</svg>